<svg width="89" height="162" viewBox="0 0 89 162" fill="none" xmlns="http://www.w3.org/2000/svg">
<path d="M82.3067 57.189C81.7497 41.1578 80.5366 28.6762 79.6599 21.2919C79.0768 16.3814 75.6505 12.2678 70.9174 10.8375C65.5525 9.21607 57.6416 7.52771 47.9606 7.52771C38.2805 7.52771 30.3687 9.21607 25.0038 10.8375C20.2706 12.2678 16.8444 16.3814 16.2613 21.2919C15.3845 28.6762 14.1715 41.1578 13.6154 57.189C12.0408 57.4158 9.24715 58.0901 7.74734 60.0766C7.17731 60.8317 7.7821 61.9022 8.72143 61.791L13.4911 61.2262C13.379 65.4588 13.3138 69.9122 13.3138 74.5637C13.3138 102.243 16.3178 136.411 17.7611 151.231C18.2043 155.781 21.6418 159.475 26.1526 160.219C31.4245 161.088 39.0721 162 47.9597 162C56.8473 162 64.495 161.088 69.7669 160.219C74.2767 159.475 77.7152 155.78 78.1583 151.231C79.6016 136.41 82.6056 102.242 82.6056 74.5637C82.6056 69.9122 82.5404 65.4588 82.4283 61.2262L87.198 61.791C88.1373 61.9022 88.7421 60.8317 88.1721 60.0766C86.6749 58.0893 83.8812 57.4158 82.3067 57.189Z" fill="#1C1C1C"/>
<path d="M72.133 13.7642C71.55 8.85372 68.1237 4.74011 63.3905 3.30982C58.0256 1.68836 50.1138 0 40.4337 0C30.7536 0 22.8419 1.68836 17.477 3.30982C12.7438 4.74011 9.31753 8.85372 8.73446 13.7642C7.56225 23.6398 5.78699 42.628 5.78699 67.0351C5.78699 94.7138 8.79095 128.883 10.2343 143.703C10.6774 148.252 14.115 151.946 18.6257 152.69C23.8976 153.56 31.5453 154.471 40.4329 154.471C49.3196 154.471 56.9681 153.559 62.24 152.69C66.7499 151.946 70.1883 148.251 70.6315 143.703C72.0748 128.882 75.0788 94.7138 75.0788 67.0351C75.0796 42.6272 73.3044 23.6389 72.133 13.7642Z" fill="#FFA400"/>
<path d="M71.105 15.8227C70.5411 11.0712 67.226 7.09146 62.6458 5.70722C57.4547 4.13877 49.8001 2.50427 40.4337 2.50427C31.0673 2.50427 23.4127 4.1379 18.2216 5.70722C13.6414 7.09146 10.3263 11.0712 9.76239 15.8227C8.62841 25.3776 14.5312 39.2556 14.5312 62.8719C14.5312 89.6538 15.633 111.555 17.0294 125.894C17.4578 130.296 14.97 149.524 19.3339 150.244C24.4346 151.085 31.8346 151.968 40.4337 151.968C49.0328 151.968 56.4328 151.085 61.5335 150.244C65.8974 149.524 63.4087 130.296 63.838 125.894C65.2344 111.554 66.3362 89.653 66.3362 62.8719C66.3362 39.2556 72.2381 25.3776 71.105 15.8227Z" fill="#FFE04A"/>
<path d="M7.24506 49.5475C7.24506 49.5475 2.38502 49.6822 0.221338 52.548C-0.348693 53.3031 0.256098 54.3736 1.19543 54.2624L7.24506 53.5464V49.5475Z" fill="#FFA400"/>
<path d="M27.104 2.0238C23.3467 2.64423 20.1046 3.45321 17.4769 4.24656C15.5366 4.8331 13.8213 5.87584 12.4257 7.23488C12.5196 7.57898 12.7594 7.90399 13.0948 8.02825C13.8213 8.29849 14.6189 7.96133 15.3193 7.63026C19.0271 5.8802 22.7349 4.13014 26.4427 2.38008C26.6635 2.27667 26.8929 2.16023 27.104 2.0238Z" fill="#E9E8D8"/>
<path d="M73.6224 49.5475C73.6224 49.5475 78.4824 49.6822 80.647 52.548C81.217 53.3031 80.6122 54.3736 79.6729 54.2624L73.6232 53.5464L73.6224 49.5475Z" fill="#FFA400"/>
<path d="M53.7634 2.0238C57.5208 2.64423 60.7628 3.45321 63.3905 4.24656C65.3309 4.8331 67.0462 5.87584 68.4417 7.23488C68.3479 7.57898 68.108 7.90399 67.7726 8.02825C67.0462 8.29849 66.2485 7.96133 65.5481 7.63026C61.8403 5.8802 58.1325 4.13014 54.4247 2.38008C54.204 2.27667 53.9746 2.16023 53.7634 2.0238Z" fill="#E9E8D8"/>
<path d="M17.0294 125.894V148.258C17.0294 150.075 18.3528 151.613 20.1463 151.9C27.303 153.044 40.4328 153.224 40.4328 153.224C40.4328 153.224 53.5627 153.044 60.7193 151.9C62.5137 151.613 63.8362 150.075 63.8362 148.258V125.894H17.0294Z" fill="#45474A"/>
<path d="M40.4337 18.1124C21.8182 18.1124 11.2005 29.5626 11.2005 29.5626L14.5312 62.872C14.5312 62.872 25.7398 56.679 40.4337 56.679C55.1276 56.679 66.3362 62.872 66.3362 62.872L69.6669 29.5626C69.6669 29.5626 59.0492 18.1124 40.4337 18.1124Z" fill="#45474A"/>
<path d="M12.7021 120.35C12.6386 112.3 12.5613 103.14 12.4735 94.6112C10.7756 93.7571 9.04032 92.9724 7.31024 92.1808C7.54225 102.455 8.37731 112.187 9.33229 120.35H12.7021V120.35Z" fill="#45474A"/>
<path d="M9.62079 122.743C11.1545 135.093 12.8663 143.288 12.8663 143.288C12.8663 143.288 12.8107 134.393 12.7203 122.592C11.688 122.661 10.6548 122.71 9.62079 122.743Z" fill="#45474A"/>
<path d="M12.4388 91.2353C12.3145 79.6339 12.1737 69.7149 12.033 66.2026C11.6167 55.7935 8.70229 37.4734 8.70229 37.4734C8.70229 37.4734 7.24506 56.8197 7.24506 86.6047C7.24506 86.6464 7.24506 86.6881 7.24506 86.7298C8.90909 88.3061 10.647 89.8033 12.4388 91.2353Z" fill="#45474A"/>
<path d="M68.1654 120.35C68.2288 112.3 68.3062 103.14 68.3939 94.6112C70.0919 93.7571 71.8272 92.9724 73.5572 92.1808C73.3252 102.455 72.4902 112.187 71.5352 120.35H68.1654V120.35Z" fill="#45474A"/>
<path d="M71.2466 122.743C69.7129 135.093 68.0011 143.288 68.0011 143.288C68.0011 143.288 68.0567 134.393 68.1479 122.592C69.1794 122.661 70.2126 122.71 71.2466 122.743Z" fill="#45474A"/>
<path d="M68.4286 91.2353C68.5529 79.6339 68.6937 69.7149 68.8344 66.2026C69.2507 55.7935 72.1651 37.4734 72.1651 37.4734C72.1651 37.4734 73.6224 56.8197 73.6224 86.6047C73.6224 86.6464 73.6224 86.6881 73.6224 86.7298C71.9583 88.3061 70.2204 89.8033 68.4286 91.2353Z" fill="#45474A"/>
</svg>
