<svg width="51" height="63" viewBox="0 0 51 63" fill="none" xmlns="http://www.w3.org/2000/svg">
<path fill-rule="evenodd" clip-rule="evenodd" d="M12.1677 27.9327C12.4176 27.277 13.1518 26.9481 13.8075 27.198L17.7923 28.717C18.448 28.9669 18.777 29.7011 18.527 30.3568C18.2771 31.0125 17.5429 31.3415 16.8872 31.0915L12.9024 29.5725C12.2467 29.3226 11.9177 28.5884 12.1677 27.9327Z" fill="#201E1E"/>
<path fill-rule="evenodd" clip-rule="evenodd" d="M8.70457 29.6146C9.40857 27.5043 11.7287 26.4055 13.8074 27.198C14.4631 27.448 14.792 28.1822 14.542 28.8379C14.2921 29.4936 13.5579 29.8225 12.9022 29.5725C12.1742 29.295 11.3617 29.6797 11.1152 30.4188C10.8931 31.0845 10.1735 31.4441 9.5078 31.222C8.84213 31 8.48251 30.2803 8.70457 29.6146Z" fill="#201E1E"/>
<path fill-rule="evenodd" clip-rule="evenodd" d="M10.3121 28.8115C10.9777 29.0336 11.3373 29.7532 11.1152 30.4189C10.8924 31.0867 11.2122 31.8147 11.8549 32.1024C12.4954 32.3891 12.7823 33.1407 12.4956 33.7812C12.2089 34.4217 11.4573 34.7085 10.8168 34.4218C8.98175 33.6005 8.06832 31.5217 8.70466 29.6146C8.92677 28.9489 9.64644 28.5894 10.3121 28.8115Z" fill="#201E1E"/>
<path fill-rule="evenodd" clip-rule="evenodd" d="M10.176 32.7432C10.4627 32.1027 11.2143 31.8158 11.8548 32.1025L25.2889 38.1152C25.9294 38.4019 26.2163 39.1535 25.9296 39.794C25.6429 40.4345 24.8913 40.7214 24.2508 40.4347L10.8167 34.422C10.1762 34.1353 9.88934 33.3837 10.176 32.7432Z" fill="#201E1E"/>
<path fill-rule="evenodd" clip-rule="evenodd" d="M23.6104 38.7559C23.897 38.1154 24.6486 37.8285 25.2891 38.1152C25.824 38.3546 26.4319 38.362 26.9712 38.136C27.6184 37.8648 28.3629 38.1696 28.6341 38.8168C28.9053 39.464 28.6005 40.2085 27.9533 40.4797C26.7651 40.9777 25.4259 40.9605 24.2511 40.4347C23.6106 40.148 23.3237 39.3964 23.6104 38.7559Z" fill="#201E1E"/>
<path fill-rule="evenodd" clip-rule="evenodd" d="M26.2902 39.7989C26.019 39.1517 26.3238 38.4072 26.971 38.136L34.2124 35.1016C34.8596 34.8304 35.6041 35.1352 35.8753 35.7824C36.1465 36.4296 35.8417 37.1741 35.1945 37.4453L27.9531 40.4797C27.3059 40.751 26.5614 40.4461 26.2902 39.7989Z" fill="#201E1E"/>
<path fill-rule="evenodd" clip-rule="evenodd" d="M37.8435 26.2326C38.4907 25.9614 39.2352 26.2662 39.5064 26.9134C41.0546 30.6081 39.6666 35.5713 35.1946 37.4453C34.5474 37.7165 33.8029 37.4117 33.5317 36.7645C33.2605 36.1173 33.5653 35.3728 34.2125 35.1016C37.2404 33.8327 38.2334 30.4508 37.1627 27.8955C36.8914 27.2483 37.1963 26.5038 37.8435 26.2326Z" fill="#201E1E"/>
<path fill-rule="evenodd" clip-rule="evenodd" d="M32.2312 12.8399C32.8784 12.5687 33.623 12.8735 33.8942 13.5207L39.5061 26.9129C39.5061 26.913 39.5063 26.9134 38.3344 27.4045C37.1625 27.8955 37.1625 27.8955 37.1625 27.8954L31.5504 14.5028C31.2792 13.8556 31.584 13.1111 32.2312 12.8399ZM38.8255 28.5764C38.1783 28.8476 37.4337 28.5426 37.1625 27.8954L38.3344 27.4045L39.5063 26.9134C39.7775 27.5606 39.4727 28.3051 38.8255 28.5764Z" fill="#201E1E"/>
<path fill-rule="evenodd" clip-rule="evenodd" d="M27.5437 14.8039C28.1909 14.5327 28.9354 14.8375 29.2066 15.4847L29.5807 16.3773L28.4089 16.8686L27.2371 17.3596L26.8629 16.4668C26.5917 15.8196 26.8965 15.0751 27.5437 14.8039ZM28.9 18.0405C28.2528 18.3117 27.5083 18.0068 27.2371 17.3596L28.4089 16.8686L29.5807 16.3773C29.8519 17.0245 29.5472 17.7692 28.9 18.0405Z" fill="#201E1E"/>
<path fill-rule="evenodd" clip-rule="evenodd" d="M29.105 14.132C28.9918 14.4147 28.9445 14.8592 29.2066 15.4846C29.4778 16.1318 29.173 16.8764 28.5258 17.1476C27.8786 17.4188 27.1341 17.114 26.8629 16.4668C26.3767 15.3065 26.3541 14.1662 26.7457 13.1877C27.1318 12.2231 27.8834 11.5126 28.765 11.1431C29.6466 10.7737 30.6802 10.7362 31.6387 11.1374C32.6108 11.5444 33.4079 12.3601 33.8941 13.5204C34.1653 14.1676 33.8605 14.9121 33.2133 15.1833C32.5661 15.4545 31.8216 15.1497 31.5504 14.5025C31.2883 13.8771 30.9382 13.5991 30.6574 13.4815C30.3627 13.3581 30.0374 13.3653 29.7471 13.4869C29.4569 13.6085 29.2237 13.8355 29.105 14.132Z" fill="#201E1E"/>
<path fill-rule="evenodd" clip-rule="evenodd" d="M22.1079 14.9824C22.7551 14.7112 23.4997 15.0161 23.7709 15.6633L24.8932 18.3416L23.7214 18.8329L22.5496 19.3239L21.4271 16.6454C21.1559 15.9982 21.4607 15.2537 22.1079 14.9824ZM24.2125 20.0047C23.5653 20.2759 22.8208 19.9711 22.5496 19.3239L23.7214 18.8329L24.8932 18.3416C25.1644 18.9888 24.8597 19.7335 24.2125 20.0047Z" fill="#201E1E"/>
<path fill-rule="evenodd" clip-rule="evenodd" d="M23.6693 14.3106C23.5561 14.5933 23.5088 15.0378 23.7709 15.6632C24.0421 16.3104 23.7373 17.055 23.0901 17.3262C22.4429 17.5974 21.6984 17.2926 21.4272 16.6454C20.941 15.4851 20.9184 14.3448 21.31 13.3663C21.6961 12.4017 22.4477 11.6912 23.3293 11.3217C24.2109 10.9523 25.2445 10.9148 26.2029 11.316C27.1751 11.723 27.9722 12.5387 28.4584 13.699C28.7296 14.3462 28.4248 15.0907 27.7776 15.3619C27.1304 15.6331 26.3859 15.3283 26.1147 14.6811C25.8526 14.0556 25.5025 13.7777 25.2216 13.6601C24.927 13.5367 24.6017 13.5439 24.3114 13.6655C24.0212 13.7871 23.788 14.014 23.6693 14.3106Z" fill="#201E1E"/>
<path fill-rule="evenodd" clip-rule="evenodd" d="M26.7954 13.0182C27.4426 12.747 28.1871 13.0518 28.4583 13.699L29.2066 15.4847C29.4778 16.1319 29.173 16.8764 28.5258 17.1476C27.8786 17.4189 27.1341 17.114 26.8629 16.4668L26.1146 14.6811C25.8434 14.0339 26.1482 13.2894 26.7954 13.0182Z" fill="#201E1E"/>
<path fill-rule="evenodd" clip-rule="evenodd" d="M27.5437 14.8039C28.1909 14.5327 28.9354 14.8375 29.2066 15.4847L29.5806 16.3773L28.4089 16.8686L27.237 17.3596L26.8628 16.4668C26.5916 15.8196 26.8964 15.0751 27.5437 14.8039ZM28.8999 18.0405C28.2527 18.3117 27.5082 18.0068 27.237 17.3596L28.4089 16.8686L29.5806 16.3773C29.8519 17.0245 29.5471 17.7692 28.8999 18.0405Z" fill="#201E1E"/>
<path fill-rule="evenodd" clip-rule="evenodd" d="M16.9062 15.7191C17.5534 15.4479 18.2979 15.7527 18.5691 16.4L20.2058 20.3059L19.0341 20.7973L17.8622 21.2884L16.2254 17.3821C15.9542 16.7349 16.259 15.9903 16.9062 15.7191ZM19.5252 21.9692C18.878 22.2404 18.1335 21.9356 17.8622 21.2884L19.0341 20.7973L20.206 20.3063C20.4772 20.9535 20.1724 21.698 19.5252 21.9692Z" fill="#201E1E"/>
<path fill-rule="evenodd" clip-rule="evenodd" d="M18.4674 15.0473C18.3543 15.33 18.307 15.7745 18.5691 16.3999C18.8403 17.0471 18.5355 17.7916 17.8883 18.0628C17.2411 18.334 16.4965 18.0292 16.2253 17.382C15.7391 16.2218 15.7166 15.0815 16.1082 14.103C16.4942 13.1384 17.2458 12.4279 18.1274 12.0584C19.0091 11.689 20.0427 11.6515 21.0011 12.0527C21.9732 12.4597 22.7703 13.2754 23.2565 14.4357C23.5277 15.0829 23.2229 15.8274 22.5757 16.0986C21.9285 16.3698 21.184 16.065 20.9128 15.4178C20.6507 14.7923 20.3007 14.5144 20.0198 14.3968C19.7252 14.2734 19.3998 14.2805 19.1096 14.4022C18.8193 14.5238 18.5861 14.7507 18.4674 15.0473Z" fill="#201E1E"/>
<path fill-rule="evenodd" clip-rule="evenodd" d="M21.5937 13.7549C22.2409 13.4837 22.9855 13.7885 23.2567 14.4357L22.0848 14.9268L20.9129 15.4178C20.6417 14.7706 20.9465 14.0261 21.5937 13.7549ZM22.0848 14.9268L20.9129 15.4178L21.4274 16.6455C21.6986 17.2927 22.4431 17.5975 23.0903 17.3263C23.7375 17.0551 24.0423 16.3106 23.7711 15.6634L23.2567 14.4357L22.0848 14.9268Z" fill="#201E1E"/>
<path fill-rule="evenodd" clip-rule="evenodd" d="M22.1082 14.9826C22.7554 14.7114 23.4999 15.0162 23.7711 15.6634L24.8935 18.3418L23.7217 18.8331L22.5498 19.3241L21.4274 16.6455C21.1562 15.9983 21.461 15.2538 22.1082 14.9826ZM24.2128 20.0049C23.5656 20.2761 22.821 19.9713 22.5498 19.3241L23.7217 18.8331L24.8935 18.3418C25.1647 18.989 24.86 19.7337 24.2128 20.0049Z" fill="#201E1E"/>
<path fill-rule="evenodd" clip-rule="evenodd" d="M9.59955 11.4333C10.2468 11.162 10.9913 11.4669 11.2625 12.1141L18.5115 29.413C18.7827 30.0602 18.4779 30.8047 17.8307 31.076C17.1835 31.3472 16.4389 31.0424 16.1677 30.3951L8.91875 13.0962C8.64754 12.449 8.95235 11.7045 9.59955 11.4333Z" fill="#201E1E"/>
<path fill-rule="evenodd" clip-rule="evenodd" d="M11.9436 10.4512C11.2964 10.7224 10.9916 11.467 11.2628 12.1142C11.534 12.7614 11.2292 13.5059 10.582 13.7771C9.93475 14.0483 9.19024 13.7435 8.91903 13.0963C8.10541 11.1547 9.01983 8.92112 10.9615 8.1075C11.6087 7.8363 12.3532 8.14111 12.6244 8.78831C12.8956 9.43552 12.5908 10.18 11.9436 10.4512Z" fill="#201E1E"/>
<path fill-rule="evenodd" clip-rule="evenodd" d="M10.2804 9.77038C10.0092 9.12317 10.314 8.37866 10.9612 8.10745C12.9018 7.29429 15.1353 8.20563 15.9494 10.1483C16.2206 10.7955 15.9158 11.54 15.2685 11.8112C14.6213 12.0824 13.8768 11.7776 13.6056 11.1304C13.3348 10.4842 12.5916 10.1796 11.9434 10.4512C11.2961 10.7224 10.5516 10.4176 10.2804 9.77038Z" fill="#201E1E"/>
<path fill-rule="evenodd" clip-rule="evenodd" d="M14.2864 9.46743C14.9336 9.19623 15.6781 9.50104 15.9493 10.1482L18.569 16.3998C18.8402 17.047 18.5354 17.7915 17.8882 18.0627C17.241 18.3339 16.4964 18.0291 16.2252 17.3819L13.6056 11.1304C13.3344 10.4832 13.6392 9.73864 14.2864 9.46743Z" fill="#201E1E"/>
<path fill-rule="evenodd" clip-rule="evenodd" d="M16.9061 15.719C17.5533 15.4478 18.2978 15.7526 18.569 16.3998L20.2057 20.3057L19.034 20.7971L17.8621 21.2882L16.2253 17.382C15.9541 16.7347 16.2589 15.9902 16.9061 15.719ZM19.5251 21.969C18.8779 22.2402 18.1333 21.9354 17.8621 21.2882L19.034 20.7971L20.2059 20.3061C20.4771 20.9533 20.1723 21.6978 19.5251 21.969Z" fill="#201E1E"/>
<path d="M1.93934 49.9393C1.35355 50.5251 1.35355 51.4749 1.93934 52.0607L11.4853 61.6066C12.0711 62.1924 13.0208 62.1924 13.6066 61.6066C14.1924 61.0208 14.1924 60.0711 13.6066 59.4853L5.12132 51L13.6066 42.5147C14.1924 41.9289 14.1924 40.9792 13.6066 40.3934C13.0208 39.8076 12.0711 39.8076 11.4853 40.3934L1.93934 49.9393ZM50.0607 52.0607C50.6464 51.4749 50.6464 50.5251 50.0607 49.9393L40.5147 40.3934C39.9289 39.8076 38.9792 39.8076 38.3934 40.3934C37.8076 40.9792 37.8076 41.9289 38.3934 42.5147L46.8787 51L38.3934 59.4853C37.8076 60.0711 37.8076 61.0208 38.3934 61.6066C38.9792 62.1924 39.9289 62.1924 40.5147 61.6066L50.0607 52.0607ZM3 52.5H49V49.5H3V52.5Z" fill="#201E1E"/>
</svg>
