<svg width="32" height="32" viewBox="0 0 32 32" fill="none" xmlns="http://www.w3.org/2000/svg">
<circle cx="16" cy="16" r="15.3079" fill="#201E1F" stroke="white" stroke-width="1.38413"/>
<path d="M23.6293 25.4075C24.0892 25.4075 24.4321 25.0772 24.4321 24.6089C24.4321 24.1406 24.085 23.8187 23.6293 23.8187C23.1736 23.8187 22.8266 24.1281 22.8266 24.6089C22.8266 25.0897 23.1778 25.4075 23.6293 25.4075ZM20.3389 24.4291C19.8664 24.4291 19.5487 24.0904 19.5487 23.6263C19.5487 23.133 19.8664 22.8361 20.3389 22.8361C20.8113 22.8361 21.1165 23.1246 21.1165 23.618C21.1165 24.0612 20.8364 24.4291 20.3389 24.4291ZM20.6775 21.862C20.1549 21.862 19.7243 22.0376 19.4023 22.3428C19.4818 21.7156 19.8246 21.4062 20.6441 21.2557L22.2538 20.9505L22.0698 19.83L20.2134 20.1812C18.7585 20.4572 18.1271 21.4355 18.1271 22.9323C18.1271 24.6758 19.0595 25.4451 20.3347 25.4451C21.6099 25.4451 22.4879 24.7176 22.4879 23.618C22.4879 22.5184 21.8106 21.862 20.6817 21.862H20.6775ZM16.6178 21.5233L15.6729 23.8563L14.7363 21.5233H13.3608L14.9956 25.3949C14.8827 25.6207 14.7363 25.721 14.4729 25.721C14.2597 25.721 14.0339 25.6374 13.8792 25.4953L13.4151 26.4318C13.6702 26.645 14.1217 26.7788 14.5231 26.7788C15.2799 26.7788 15.8401 26.4903 16.2457 25.5036L17.8972 21.5233H16.622H16.6178ZM11.1198 24.3413C10.6682 24.3413 10.317 24.011 10.317 23.4298C10.317 22.8487 10.6682 22.5184 11.1198 22.5184C11.5713 22.5184 11.9225 22.8487 11.9225 23.4298C11.9225 24.011 11.5713 24.3413 11.1198 24.3413ZM11.4041 21.4564C10.9024 21.4564 10.5302 21.5986 10.2752 21.8996V21.5191H9V26.7119H10.3421V25.0061C10.6013 25.2737 10.9609 25.4075 11.4083 25.4075C12.4451 25.4075 13.2855 24.6465 13.2855 23.434C13.2855 22.2215 12.4451 21.4606 11.4083 21.4606L11.4041 21.4564ZM15.3593 16.2427C14.0883 16.2427 13.1768 15.1515 13.1768 12.2331C13.1768 9.31479 14.0883 8.22355 15.3593 8.22355C16.6303 8.22355 17.5251 9.31479 17.5251 12.2331C17.5251 15.1515 16.6136 16.2427 15.3593 16.2427ZM15.3593 19.4579C18.8922 19.4579 21.4761 16.8155 21.4761 12.2289C21.4761 7.64239 18.8964 5 15.3593 5C11.8222 5 9.22577 7.64239 9.22577 12.2289C9.22577 16.8155 11.8055 19.4579 15.3593 19.4579Z" fill="white"/>
</svg>
