<svg width="32" height="32" viewBox="0 0 32 32" fill="none" xmlns="http://www.w3.org/2000/svg">
<circle cx="16" cy="16" r="15.3079" fill="#201E1F" stroke="white" stroke-width="1.38413"/>
<path fill-rule="evenodd" clip-rule="evenodd" d="M9.26992 8.50789H11.8361V7.09639C11.8361 6.89483 12.0005 6.73044 12.2021 6.73044H13.0269C13.2285 6.73044 13.3929 6.89483 13.3929 7.09639V8.50789H18.7636V7.09639C18.7636 6.89483 18.928 6.73044 19.1296 6.73044H19.9544C20.156 6.73044 20.3204 6.89483 20.3204 7.09639V8.50789H22.8866C23.8734 8.50789 24.6782 9.31274 24.6782 10.2995V11.4475H7.47827V10.2995C7.47827 9.31274 8.28312 8.50789 9.26992 8.50789ZM24.6782 12.3258V22.1387C24.6782 23.1255 23.8733 23.9304 22.8865 23.9304H9.26992C8.28312 23.9304 7.47827 23.1255 7.47827 22.1387V12.3258H24.6782ZM10.3429 14.4673V16.6898H12.5653V14.4673H10.3429ZM10.3429 19.1273V21.3498H12.5653V19.1273H10.3429ZM19.5911 19.1273V21.3498H21.8136V19.1273H19.5911ZM14.967 19.1273V21.3498H17.1895V19.1273H14.967ZM19.5911 14.4673V16.6898H21.8136V14.4673H19.5911ZM14.967 14.4673V16.6898H17.1895V14.4673H14.967Z" fill="white"/>
</svg>
