<svg width="32" height="32" viewBox="0 0 32 32" fill="none" xmlns="http://www.w3.org/2000/svg">
<circle cx="16" cy="16" r="15.3079" fill="#201E1F" stroke="white" stroke-width="1.38413"/>
<path d="M20.8434 10.6078H22.3775C22.5311 10.6078 22.6842 10.5297 22.7229 10.3732C22.7995 10.2167 22.7597 10.0605 22.6463 9.94303L20.3452 7.59719C20.2304 7.4797 20.0769 7.44067 19.9233 7.51912C19.7698 7.59756 19.6932 7.71467 19.6932 7.8708V9.43483C19.6929 10.0995 20.1899 10.6078 20.8434 10.6078Z" fill="white"/>
<path d="M17.7754 18.7792C17.7762 18.6186 17.8243 18.4619 17.9134 18.3294C18.0025 18.197 18.1287 18.0949 18.2754 18.0364L21.3433 16.9025C21.4199 16.865 21.5352 16.865 21.6117 16.865C21.6883 16.865 21.8036 16.865 21.8801 16.9025L22.7637 17.2152V11.3115C22.6402 11.3562 22.511 11.3825 22.3801 11.3896H20.8434C20.5909 11.3921 20.3405 11.3432 20.1067 11.2459C19.873 11.1485 19.6606 11.0047 19.4821 10.8226C19.3035 10.6406 19.1624 10.4241 19.0669 10.1858C18.9714 9.94754 18.9235 9.69223 18.926 9.43483V7.8708C18.9329 7.73736 18.9587 7.60564 19.0025 7.4797H10.8723C10.2202 7.48008 9.72174 7.98979 9.72174 8.653V23.5099C9.72174 24.1746 10.2202 24.6829 10.8723 24.6829H18.926C18.2754 24.0166 17.7754 23.1188 17.7754 21.9853V18.7792ZM12.7897 11.7807H16.2413C16.4714 11.7807 16.6249 11.9372 16.6249 12.1718C16.6249 12.4064 16.4714 12.5629 16.2413 12.5629H12.7897C12.5596 12.5629 12.4061 12.4064 12.4061 12.1718C12.4061 11.9372 12.5596 11.7807 12.7897 11.7807ZM12.7897 13.7354H19.6929C19.923 13.7354 20.0765 13.8919 20.0765 14.1265C20.0765 14.3611 19.923 14.5176 19.6929 14.5176H12.7897C12.5596 14.5176 12.4061 14.3611 12.4061 14.1265C12.4061 13.8919 12.5596 13.7354 12.7897 13.7354ZM12.4061 16.0813C12.4061 15.8467 12.5596 15.6902 12.7897 15.6902H18.1587C18.3888 15.6902 18.5423 15.8467 18.5423 16.0813C18.5423 16.3159 18.3888 16.4724 18.1587 16.4724H12.7897C12.5596 16.4724 12.4061 16.3159 12.4061 16.0813Z" fill="white"/>
<path d="M21.6103 17.6453L18.5423 18.7792V21.9463C18.5423 24.1356 20.92 25.1914 21.6103 25.426C22.3006 25.1914 24.6782 24.136 24.6782 21.9463V18.7792L21.6103 17.6453ZM23.0675 20.6168L21.917 22.1809C21.8404 22.2589 21.7634 22.3374 21.6486 22.3374H21.6117C21.5614 22.3388 21.5113 22.3291 21.4649 22.3089C21.4186 22.2887 21.3771 22.2584 21.3433 22.2203L20.5765 21.4384C20.5126 21.3648 20.4786 21.2692 20.4814 21.1709C20.4841 21.0726 20.5235 20.9791 20.5915 20.9094C20.6594 20.8396 20.7508 20.7989 20.8472 20.7953C20.9436 20.7918 21.0376 20.8258 21.1103 20.8905L21.5705 21.3596L22.4541 20.1477C22.5694 19.9912 22.8377 19.9521 22.9909 20.0696C23.1441 20.1871 23.1827 20.4603 23.0679 20.6168H23.0675Z" fill="white"/>
</svg>
