<svg width="109" height="24" viewBox="0 0 109 24" fill="none" xmlns="http://www.w3.org/2000/svg">
<path d="M85.0973 7.76642C87.5555 7.75694 90.0105 7.7601 92.4656 7.76642C92.1938 8.40467 91.9063 9.03976 91.6188 9.67169C90.9552 9.67485 90.2949 9.66221 89.6345 9.67169C89.2996 9.64641 89.2996 10.0698 89.1606 10.2815C91.682 10.2973 94.2065 10.2752 96.7279 10.291C96.2003 11.6307 95.5683 12.9293 94.9964 14.25C94.9585 14.4459 94.7689 14.4807 94.5983 14.468C92.8732 14.468 91.148 14.468 89.426 14.468C88.8541 15.675 88.3359 16.9041 87.783 18.1174C87.6502 18.3797 87.5839 18.743 87.824 18.9674C88.1179 19.2454 88.5476 19.2833 88.9362 19.2928C90.2032 19.296 91.4703 19.2802 92.7373 19.2991C92.3297 20.2597 91.9221 21.2202 91.4545 22.1523C88.3391 22.1302 85.2236 22.1523 82.1051 22.1428C81.3088 22.1333 80.4368 21.8395 79.9976 21.1349C79.6405 20.5662 79.7069 19.8331 79.9818 19.2423C81.688 15.4191 83.3879 11.5896 85.0973 7.76642ZM68.8693 7.76958C71.3243 7.75062 73.7794 7.7601 76.2344 7.76326C75.9564 8.39835 75.7384 9.09347 75.3466 9.65905C74.6515 9.68432 73.9532 9.65589 73.2549 9.66853C73.1664 9.87074 73.0748 10.0761 72.9895 10.2783C75.5077 10.2941 78.0291 10.2689 80.5474 10.291C79.9786 11.7033 79.3025 13.0715 78.6832 14.4617C76.8506 14.4712 75.0211 14.4617 73.1917 14.468C72.6451 15.6908 72.1048 16.9168 71.555 18.1395C71.4539 18.3576 71.3559 18.6451 71.5329 18.8568C71.7509 19.2012 72.1869 19.2612 72.5598 19.2833C73.8837 19.3086 75.2107 19.2517 76.5346 19.3118C76.1017 20.247 75.6941 21.1949 75.2676 22.1333C72.1648 22.146 69.0652 22.1333 65.9656 22.1397C65.1662 22.1397 64.2752 21.8743 63.8107 21.1823C63.4315 20.623 63.4663 19.8805 63.7443 19.2865C65.4506 15.4444 67.1726 11.6117 68.8725 7.76958H68.8693ZM41.7943 10.8818C42.5873 9.0366 44.5147 7.78538 46.5148 7.75378C48.9793 7.75378 51.4438 7.75378 53.9084 7.75378C53.3207 9.02712 52.7519 10.3099 52.1642 11.5833C50.755 11.5928 49.3458 11.577 47.9398 11.5896C47.7534 11.558 47.706 11.7729 47.6365 11.8929C47.0614 13.1599 46.4547 14.4112 45.8734 15.675C45.5511 16.4049 45.2098 17.2138 45.4215 18.0258C45.6775 18.5629 46.3347 18.6798 46.8718 18.6956C47.785 18.6956 48.7013 18.5313 49.5449 18.1806C49.804 18.0606 50.1199 17.9563 50.2179 17.6561C51.6492 14.4491 53.0837 11.242 54.5055 8.03183C54.5656 7.91808 54.6161 7.72534 54.7899 7.75694C57.1723 7.75694 59.5546 7.75062 61.937 7.75694C60.3951 11.2168 58.8564 14.6797 57.3113 18.1364C57.2165 18.3544 57.1059 18.6388 57.286 18.8473C57.5009 19.1854 57.9306 19.2581 58.3003 19.277C59.6305 19.296 60.9575 19.2549 62.2877 19.296C61.8644 20.2407 61.4504 21.1886 61.0207 22.127C57.918 22.1365 54.812 22.127 51.7092 22.1302C50.8245 22.1523 49.8924 21.7731 49.4343 20.9864C48.4769 21.5994 47.3742 21.9406 46.262 22.1239C44.9097 22.3292 43.5352 22.4209 42.1703 22.345C41.077 22.2597 39.8795 21.9785 39.156 21.0875C38.4261 20.1775 38.464 18.8663 38.8779 17.8267C39.8574 15.5107 40.8179 13.1821 41.8006 10.8692L41.7943 10.8818ZM31.7624 7.81065C31.9077 7.71902 32.0941 7.76958 32.2584 7.75378C34.4228 7.76642 36.5872 7.74746 38.7547 7.76326C36.6093 12.5596 34.407 17.3338 32.2584 22.1302C29.9266 22.1586 27.598 22.1428 25.2661 22.1365C27.1714 17.8615 29.1304 13.6086 31.0546 9.33992C31.3011 8.83438 31.497 8.30672 31.7624 7.81065ZM40.028 4.8627C40.7547 3.23548 41.472 1.6051 42.2461 0C63.3115 0.0189579 84.3737 -0.00947895 105.436 0.0157982C104.776 1.64302 104.039 3.23864 103.363 4.85954C90.8573 4.88166 78.3514 4.8627 65.8455 4.86902C57.2418 4.86586 48.6349 4.8785 40.028 4.86586V4.8627ZM7.80908 0.101109C10.2136 0.0979491 12.6181 0.101109 15.0226 0.101109C13.0193 5.2229 11.0224 10.3447 9.02238 15.4665C8.83912 15.9531 8.62743 16.4302 8.4726 16.9262C11.9482 14.9609 15.3701 12.9008 18.8299 10.9103C18.9911 10.806 19.1996 10.7302 19.2786 10.5374C20.0243 8.86281 20.7068 7.16292 21.4682 5.49779C22.1507 5.33349 22.8996 5.5515 23.582 5.39668C23.699 5.21026 23.7874 5.0112 23.8854 4.81846C22.4604 4.80267 21.0354 4.82794 19.6104 4.80583C20.3118 3.19756 21.048 1.60826 21.7747 0.0126386C24.9944 0.00947895 28.2141 0.00315965 31.4369 0.0157982C29.3737 4.63205 27.263 9.22618 25.184 13.8361C24.8649 14.6576 24.3814 15.457 23.5884 15.8962C19.5725 18.2438 15.5565 20.5883 11.5406 22.9327C11.0509 23.2108 10.5769 23.5362 10.0303 23.691C9.48369 23.8585 8.90547 23.8143 8.34306 23.8206C6.61789 23.8111 4.89588 23.8332 3.17071 23.8111C1.53085 23.7637 0.0521385 22.3356 0.0079034 20.6862C-0.0552896 19.9311 0.273314 19.2265 0.535565 18.5377C2.94322 12.3827 5.38563 6.24347 7.80908 0.101109ZM46.3252 0.970012C46.2336 1.16907 46.1388 1.36813 46.0471 1.56719C46.4927 1.57666 46.9413 1.57666 47.39 1.61774C47.0962 2.33182 46.7233 3.00799 46.4484 3.72839C46.9255 3.69679 47.4532 3.84529 47.8955 3.63992C48.2431 2.98587 48.5243 2.29391 48.8371 1.6209C49.3174 1.57035 49.8071 1.57666 50.2906 1.56403C50.3695 1.36497 50.4517 1.16907 50.5307 0.970012C49.1278 0.957374 47.7281 0.963693 46.3252 0.966853V0.970012ZM58.2086 0.973172C58.4772 1.54507 58.8374 2.06957 59.1281 2.63199C58.948 2.98271 58.7837 3.34291 58.6605 3.71575C59.1313 3.74102 59.6084 3.75682 60.0792 3.68099C60.2498 3.34291 60.354 2.96059 60.6005 2.66674C61.3778 2.07273 62.2593 1.61458 63.0113 0.979491C62.4773 0.957374 61.9433 0.941575 61.4125 0.976332C60.9449 1.25754 60.591 1.69357 60.1613 2.02534C60.0128 1.67777 59.8991 1.32073 59.7758 0.963693C59.2545 0.963693 58.7331 0.957374 58.2086 0.973172ZM71.9626 1.04268C71.5708 1.94318 71.1158 2.81525 70.7524 3.72839C71.2296 3.73786 71.713 3.75998 72.1869 3.68415C72.3323 3.34607 72.4839 3.01115 72.6451 2.67938C72.9042 2.72046 73.2549 2.61935 73.4381 2.85948C73.4982 3.13121 73.4982 3.41242 73.5361 3.68415C74.029 3.75366 74.5251 3.73155 75.0211 3.72839C75.0022 3.26392 75.0306 2.72994 74.6325 2.40449C75.1222 2.27179 75.9848 1.98426 75.7131 1.31125C75.3023 0.99213 74.7462 0.982651 74.2502 0.951054C73.4887 0.960533 72.7178 0.89734 71.9626 1.03636V1.04268ZM83.4448 3.73155C84.6486 3.71575 85.8587 3.79158 87.0594 3.68731C87.1479 3.50089 87.2363 3.31763 87.3248 3.13121C86.6044 3.10594 85.884 3.13437 85.1636 3.10909C85.2458 2.94479 85.2868 2.74574 85.4322 2.62251C86.0578 2.59407 86.6897 2.61619 87.3153 2.61935C87.407 2.42345 87.4923 2.22439 87.5807 2.02534C86.9425 2.00638 86.3011 2.02849 85.6628 2.00638C85.745 1.86735 85.7703 1.67145 85.9219 1.58298C86.6012 1.53243 87.2837 1.59562 87.9662 1.54823C88.0294 1.35549 88.0958 1.16591 88.1621 0.973172C87.012 0.960533 85.865 0.973172 84.7181 0.966853C84.2663 1.87683 83.8334 2.79945 83.4416 3.73471L83.4448 3.73155ZM96.8638 1.58614C96.6742 1.73465 96.5857 2.06957 96.8101 2.22755C97.224 2.54668 97.7643 2.56248 98.2509 2.71098C98.5668 2.80577 98.6774 2.97639 98.2825 3.09014C97.6885 3.26392 97.0376 3.08066 96.4309 3.0301L95.8938 3.61464C96.867 3.81686 97.8907 3.83265 98.8607 3.602C99.2872 3.48825 99.758 3.33027 100.02 2.94795C100.15 2.78049 100.128 2.53088 99.9539 2.40449C99.5432 2.08221 98.9934 2.09801 98.5194 1.92739C97.9728 1.73149 98.1592 1.6367 98.6205 1.55139C99.0913 1.46608 99.5937 1.56403 100.065 1.62722C100.317 1.51031 100.475 1.25754 100.665 1.05848C99.9634 0.894181 99.2367 0.916298 98.5226 0.960533C97.9412 1.04268 97.3125 1.16907 96.8669 1.57982L96.8638 1.58614ZM73.198 1.50399C73.4255 1.51031 73.6688 1.48819 73.8963 1.51979C74.6767 1.62406 74.2249 2.00954 73.7636 2.11696C73.4824 2.18016 73.1696 2.16752 72.8947 2.16436C72.9895 1.94318 73.0938 1.72201 73.2012 1.50399H73.198ZM102.036 7.75694C104.358 7.76326 106.678 7.75062 109 7.76326C106.864 12.5691 104.665 17.3496 102.494 22.1428C100.175 22.1428 97.8528 22.1555 95.5336 22.1397C96.3582 20.1838 97.2777 18.2722 98.1403 16.3322C99.4421 13.4759 100.725 10.6133 102.036 7.7601V7.75694Z" fill="#201E1F"/>
</svg>
